<?xml version="1.0" encoding="utf-8"?>
<!-- Generator: Adobe Illustrator 23.1.0, SVG Export Plug-In . SVG Version: 6.00 Build 0)  -->
<svg version="1.1" id="Capa_1" xmlns="http://www.w3.org/2000/svg" xmlns:xlink="http://www.w3.org/1999/xlink" x="0px" y="0px"
	 viewBox="0 0 550.8 550.8" style="enable-background:new 0 0 550.8 550.8;" xml:space="preserve">
<style type="text/css">
	.st0{fill:#f29019;}
</style>
<g>
	<path class="st0" d="M488.4,197h-13.2v-63.8c0-0.4-0.1-0.8-0.1-1.2c0-2.5-0.8-5-2.6-7L366.3,3.7c0,0-0.1,0-0.1-0.1
		c-0.6-0.7-1.4-1.3-2.2-1.8c-0.2-0.2-0.5-0.3-0.7-0.4c-0.7-0.4-1.4-0.7-2.1-0.9c-0.2-0.1-0.4-0.1-0.6-0.2C359.9,0.1,359,0,358.2,0
		h-261C85.3,0,75.6,9.7,75.6,21.6V197H62.4c-17,0-30.9,13.8-30.9,30.9v160.5c0,17,13.8,30.9,30.9,30.9h13.2v109.9
		c0,11.9,9.7,21.6,21.6,21.6h356.4c11.9,0,21.6-9.7,21.6-21.6V419.3h13.2c17,0,30.9-13.8,30.9-30.9V227.9
		C519.3,210.8,505.5,197,488.4,197z M97.2,21.6h250.2v110.5c0,6,4.8,10.8,10.8,10.8h95.4V197H97.2V21.6z M369.5,374.5h-32.1
		l-2.2-55.5c-0.6-17.4-1.3-38.5-1.3-59.6h-0.6c-4.5,18.5-10.5,39.2-16.1,56.2l-17.6,56.6H274L258.5,316c-4.7-17-9.7-37.7-13.1-56.6
		h-0.4c-0.9,19.6-1.5,42-2.6,60l-2.6,55.1h-30.3l9.3-145h43.7l14.2,48.4c4.5,16.8,9,34.8,12.3,51.8h0.7c4.1-16.8,9-35.9,13.8-52.1
		l15.5-48.2h42.8L369.5,374.5z M70,374.5l42-73.4l-40.4-71.7h37.7l12.7,26.5c4.3,8.8,7.5,15.9,11,24.1h0.4
		c3.4-9.2,6.2-15.7,9.9-24.1l12.3-26.5h37.4L152,300.3l43,74.2h-37.9L144,348.3c-5.4-10.1-8.8-17.6-12.9-26h-0.4
		c-3,8.4-6.7,15.9-11.2,26l-12,26.3L70,374.5L70,374.5z M453.6,523.4H97.2V419.3h356.4L453.6,523.4L453.6,523.4z M485.3,374.5h-90.6
		v-145h32.9V347h57.7L485.3,374.5L485.3,374.5z"/>
</g>
</svg>
