<?xml version="1.0" encoding="utf-8"?>
<!-- Generator: Adobe Illustrator 23.1.0, SVG Export Plug-In . SVG Version: 6.00 Build 0)  -->
<svg version="1.1" id="Capa_1" xmlns="http://www.w3.org/2000/svg" xmlns:xlink="http://www.w3.org/1999/xlink" x="0px" y="0px"
	 viewBox="0 0 550.8 550.8" style="enable-background:new 0 0 550.8 550.8;" xml:space="preserve">
<style type="text/css">
	.st0{fill:#f29019;}
</style>
<g>
	<path class="st0" d="M300.4,284.6c-3.9,4.6-5.9,12.1-5.9,22.7c0,10.5,1.9,18,5.8,22.5c3.9,4.6,9.2,6.9,15.9,6.9
		c6.9,0,12.2-2.2,16-6.7c3.8-4.5,5.7-12.5,5.7-24.1c0-9.7-2-16.9-5.9-21.4c-3.9-4.5-9.3-6.7-16-6.7
		C309.5,277.7,304.3,280,300.4,284.6z"/>
	<path class="st0" d="M488.4,197h-13.2v-63.8c0-0.4-0.1-0.8-0.1-1.2c0-2.5-0.8-5-2.6-7L366.3,3.7c0,0-0.1,0-0.1-0.1
		c-0.6-0.7-1.4-1.3-2.2-1.8c-0.2-0.2-0.5-0.3-0.7-0.4c-0.7-0.4-1.4-0.7-2.1-0.9c-0.2-0.1-0.4-0.1-0.6-0.2C359.9,0.1,359,0,358.2,0
		h-261C85.3,0,75.6,9.7,75.6,21.6V197H62.4c-17,0-30.9,13.8-30.9,30.9v160.5c0,17,13.8,30.9,30.9,30.9h13.2v109.9
		c0,11.9,9.7,21.6,21.6,21.6h356.4c11.9,0,21.6-9.7,21.6-21.6V419.3h13.2c17,0,30.9-13.8,30.9-30.9V227.9
		C519.3,210.8,505.5,197,488.4,197z M97.2,21.6h250.2v110.5c0,6,4.8,10.8,10.8,10.8h95.4V197H97.2V21.6z M369.9,306.3
		c0,12.1-2,22-6.1,29.8c-4.1,7.7-10,13.8-17.7,18.1c-7.7,4.3-17.3,6.5-28.8,6.5c-11.7,0-21.3-1.9-29-5.6
		c-7.7-3.7-13.9-9.6-18.6-17.7c-4.8-8.1-7.1-18.1-7.1-30.2c0-16.9,4.7-30.1,14.1-39.5c9.4-9.4,22.5-14.1,39.3-14.1
		c17.2,0,30.5,4.6,39.8,13.9C365.2,276.6,369.9,289.6,369.9,306.3z M215.9,322.4c-2.4-2.1-7.8-4.1-16.4-6c-14-3.2-24-7.3-30-12.6
		c-6-5.2-9-11.9-9-20c0-5.3,1.5-10.3,4.6-15.1c3.1-4.7,7.7-8.5,13.9-11.2c6.2-2.7,14.7-4.1,25.5-4.1c13.2,0,23.3,2.5,30.3,7.4
		c6.9,4.9,11.1,12.8,12.4,23.5l-30.2,1.8c-0.8-4.7-2.5-8.1-5.1-10.2c-2.6-2.1-6.1-3.2-10.6-3.2c-3.7,0-6.5,0.8-8.4,2.4
		c-1.9,1.6-2.8,3.5-2.8,5.8c0,1.6,0.8,3.1,2.3,4.4c1.5,1.4,5.1,2.6,10.7,3.8c14,3,24,6.1,30.1,9.1c6.1,3.1,10.5,6.9,13.2,11.5
		c2.8,4.6,4.1,9.7,4.1,15.3c0,6.6-1.8,12.8-5.5,18.4c-3.7,5.6-8.8,9.9-15.4,12.8c-6.6,2.9-14.9,4.3-24.9,4.3
		c-17.6,0-29.8-3.4-36.6-10.2c-6.8-6.8-10.6-15.4-11.5-25.9l30.4-1.9c0.7,4.9,2,8.7,4,11.3c3.3,4.2,8,6.3,14.1,6.3
		c4.6,0,8.1-1.1,10.6-3.2c2.5-2.1,3.7-4.6,3.7-7.5C219.4,326.9,218.2,324.5,215.9,322.4z M76.4,356.3c-5.7-2.8-10.2-7-13.3-12.4
		c-3.1-5.4-5-12.2-5.5-20.2l30.6-4.2c0,4.6,0.4,8,1.2,10.2c0.8,2.2,2,4,3.8,5.4c1.2,0.9,3,1.3,5.2,1.3c3.6,0,6.2-1.3,7.9-4
		c1.7-2.7,2.5-7.1,2.5-13.4v-63.8h32.1v56.3c0,11.8-1,20.8-3.1,27c-2.1,6.2-6.3,11.4-12.6,15.7c-6.3,4.3-14.4,6.4-24.3,6.4
		C90.2,360.6,82.1,359.2,76.4,356.3z M97.2,523.4V419.3h356.4v104.1H97.2z M486.3,358.8h-30.2L417.4,302v56.9h-30.1V255.3h29.9
		l39,57.3v-57.3h30.2V358.8z"/>
</g>
</svg>
