<svg width="20" height="20" viewBox="0 0 20 20" fill="none" xmlns="http://www.w3.org/2000/svg">
<path d="M12.81 4.36021L11.04 6.14021C10.3616 5.95818 9.64725 5.95798 8.96876 6.13965C8.29027 6.32132 7.67158 6.67845 7.17491 7.17512C6.67825 7.67178 6.32112 8.29047 6.13945 8.96897C5.95778 9.64746 5.95797 10.3618 6.14001 11.0402L3.38001 13.7902C2.06001 12.7902 0.960012 11.4902 0.200012 10.0002C1.34093 7.76305 3.213 5.98363 5.50514 4.95762C7.79728 3.93162 10.3715 3.72081 12.8 4.36021H12.81ZM16.61 6.21021C17.94 7.21021 19.04 8.51021 19.81 10.0002C18.6683 12.2415 16.793 14.0238 14.4966 15.0501C12.2002 16.0764 9.62137 16.2847 7.19001 15.6402L8.96001 13.8602C9.6384 14.0423 10.3528 14.0424 11.0313 13.8608C11.7098 13.6791 12.3284 13.322 12.8251 12.8253C13.3218 12.3286 13.6789 11.71 13.8606 11.0315C14.0422 10.353 14.042 9.63861 13.86 8.96021L16.62 6.21021H16.61ZM16.36 2.22021L17.78 3.64021L3.64001 17.7802L2.22001 16.3602L16.36 2.22021Z" fill="#007AFF"/>
</svg>
