<svg id="Layer_2" data-name="Layer 2" xmlns="http://www.w3.org/2000/svg" viewBox="0 0 427 137.13"><defs><style>.cls-1{fill:#f3911d;}</style></defs><path class="cls-1" d="M69.5,105.5H51.13v-3.75a23,23,0,0,1-7.63,4.19,28.86,28.86,0,0,1-8.75,1.31,31.94,31.94,0,0,1-14-3.06,34.63,34.63,0,0,1-11-8.25A37.87,37.87,0,0,1,2.56,83.88,41.18,41.18,0,0,1,0,69.38,38.25,38.25,0,0,1,2.94,54.31a39.79,39.79,0,0,1,7.81-12.06,36.87,36.87,0,0,1,11.13-8.06,29.87,29.87,0,0,1,12.87-2.94,32.76,32.76,0,0,1,9,1.25,23.86,23.86,0,0,1,7.5,3.5V1.75H69.5ZM51.38,86.13V51.38a22.05,22.05,0,0,0-2.89-1.69,25.07,25.07,0,0,0-3.39-1.38,28.1,28.1,0,0,0-3.51-.87,18,18,0,0,0-3.14-.31,21,21,0,0,0-8.22,1.56,18.74,18.74,0,0,0-6.46,4.5,20.31,20.31,0,0,0-4.26,7.06A26.3,26.3,0,0,0,18,69.38a25.32,25.32,0,0,0,1.51,8.93,21.36,21.36,0,0,0,4.14,7A18.24,18.24,0,0,0,30,89.88a19.79,19.79,0,0,0,21.4-3.75Z"/><path class="cls-1" d="M159.12,69.25q0,1.75-.18,3.63c-.13,1.25-.27,2.54-.44,3.87H100.75a25.2,25.2,0,0,0,2.81,5.94A19.81,19.81,0,0,0,108,87.56a20.83,20.83,0,0,0,5.94,3.25A21.27,21.27,0,0,0,121.25,92,29.52,29.52,0,0,0,131,90.31a23.66,23.66,0,0,0,8.12-4.56L150.5,97.13a50.54,50.54,0,0,1-14.69,7.93,49.32,49.32,0,0,1-15.19,2.32A38.85,38.85,0,0,1,93.19,96.25,38,38,0,0,1,85,84.19a38.08,38.08,0,0,1,0-29.63A37.51,37.51,0,0,1,93.25,42.5a39.68,39.68,0,0,1,12.25-8.12,37.7,37.7,0,0,1,15-3,38.73,38.73,0,0,1,14.62,2.81A39.66,39.66,0,0,1,147.5,42a36.52,36.52,0,0,1,11.62,27.25Zm-18.87-7a21.69,21.69,0,0,0-7.56-11.06A19.68,19.68,0,0,0,120.37,47a19.21,19.21,0,0,0-12.12,4.19,21.84,21.84,0,0,0-7.5,11.06Z"/><path class="cls-1" d="M200.87,105.13a24.65,24.65,0,0,1-4.81,1.62,24.3,24.3,0,0,1-5.56.63,27.58,27.58,0,0,1-7.69-1.07,17,17,0,0,1-6.44-3.43A16.69,16.69,0,0,1,172,96.69a23.27,23.27,0,0,1-1.63-9.19V1.75h18.38V84.38q0,4.5,1.81,6.18a6.1,6.1,0,0,0,4.31,1.69,10.79,10.79,0,0,0,6-1.87Z"/><path class="cls-1" d="M272.37,33.25l-27.12,72.38H227.5L200.25,33.25H220l16.37,48.5,16.38-48.5Z"/><path class="cls-1" d="M299.25,20.63H280.5V1.88h18.75ZM299,105.5H280.75V33.13H299Z"/><path class="cls-1" d="M355.87,18.25a23.34,23.34,0,0,0-4.62-1.31,28.39,28.39,0,0,0-4.38-.31q-5.25,0-7.44,2.37c-1.46,1.58-2.18,4.46-2.18,8.63v5.75h11.37V49.13H337.25V105.5h-18V49.13H310.5V33.38h8.75v-5.5q0-13.63,5.09-20.75T342.25,0a51.13,51.13,0,0,1,13.62,1.75Z"/><path class="cls-1" d="M427,33.13,394.5,119q-3.63,9.63-9.5,13.88a24.22,24.22,0,0,1-16.75,4.06,21.58,21.58,0,0,1-2.88-.56l-6-16.75a24.85,24.85,0,0,0,4.38,1.56,17.75,17.75,0,0,0,4.25.56,15.78,15.78,0,0,0,7.75-1.94q3.5-1.94,5.37-7.18l2.5-7.25L355.75,33.13h19.62L392,79.63l15.62-46.5Z"/></svg>