<svg width="30" height="30" viewBox="0 0 30 30" fill="none" xmlns="http://www.w3.org/2000/svg">
<path fill-rule="evenodd" clip-rule="evenodd" d="M18.2129 20.0879C16.9099 21.0164 15.3156 21.5625 13.5938 21.5625C9.19273 21.5625 5.625 17.9948 5.625 13.5937C5.625 9.19273 9.19273 5.625 13.5938 5.625C17.9948 5.625 21.5625 9.19273 21.5625 13.5937C21.5625 15.3156 21.0164 16.9099 20.0879 18.2129L25.3237 23.4487C25.8395 23.9645 25.8352 24.7898 25.3235 25.3015L25.3015 25.3235C24.7911 25.8339 23.9603 25.8353 23.4487 25.3237L18.2129 20.0879ZM13.5938 19.6875C16.9592 19.6875 19.6875 16.9592 19.6875 13.5937C19.6875 10.2283 16.9592 7.5 13.5938 7.5C10.2283 7.5 7.5 10.2283 7.5 13.5937C7.5 16.9592 10.2283 19.6875 13.5938 19.6875Z" fill="#8E8E93"/>
</svg>
