<?xml version="1.0" encoding="utf-8"?>
<!-- Generator: Adobe Illustrator 23.0.3, SVG Export Plug-In . SVG Version: 6.00 Build 0)  -->
<svg version="1.1" id="Warstwa_1" xmlns="http://www.w3.org/2000/svg" xmlns:xlink="http://www.w3.org/1999/xlink" x="0px" y="0px"
	 viewBox="0 0 200 200" style="enable-background:new 0 0 200 200;" xml:space="preserve">
<style type="text/css">
	.st0{fill:#F2901C;}
	.st1{fill:#FFFFFF;}
</style>
<g>
	<rect class="st0" width="200" height="200"/>
	<g>
		<path class="st1" d="M43.3,114.8h-7.4v-1.5c-0.9,0.8-1.9,1.3-3,1.7c-1.1,0.3-2.3,0.5-3.5,0.5c-2,0-3.9-0.4-5.6-1.2
			c-1.7-0.8-3.2-1.9-4.4-3.3c-1.2-1.4-2.2-3-2.9-4.8c-0.7-1.8-1-3.8-1-5.8c0-2.2,0.4-4.2,1.2-6c0.8-1.8,1.8-3.5,3.1-4.8
			c1.3-1.4,2.8-2.4,4.4-3.2c1.7-0.8,3.4-1.2,5.1-1.2c1.2,0,2.4,0.2,3.6,0.5c1.2,0.3,2.2,0.8,3,1.4V73.3h7.3V114.8z M36,107.1V93.1
			c-0.3-0.2-0.7-0.5-1.2-0.7c-0.4-0.2-0.9-0.4-1.4-0.6c-0.5-0.2-0.9-0.3-1.4-0.3c-0.5-0.1-0.9-0.1-1.3-0.1c-1.2,0-2.3,0.2-3.3,0.6
			c-1,0.4-1.8,1-2.6,1.8c-0.7,0.8-1.3,1.7-1.7,2.8c-0.4,1.1-0.6,2.3-0.6,3.7c0,1.3,0.2,2.5,0.6,3.6c0.4,1.1,1,2,1.7,2.8
			c0.7,0.8,1.5,1.4,2.5,1.8c1,0.4,2.1,0.6,3.2,0.6C32.6,109.2,34.4,108.5,36,107.1z"/>
		<path class="st1" d="M79.1,100.3c0,0.5,0,1-0.1,1.5s-0.1,1-0.2,1.6H55.8c0.3,0.8,0.6,1.6,1.1,2.4c0.5,0.8,1.1,1.4,1.8,1.9
			s1.5,1,2.4,1.3c0.9,0.3,1.9,0.5,2.9,0.5c1.3,0,2.6-0.2,3.9-0.7c1.3-0.4,2.4-1.1,3.3-1.8l4.6,4.5c-2,1.5-4,2.6-5.9,3.2
			c-1.9,0.6-3.9,0.9-6.1,0.9c-2.2,0-4.2-0.4-6.1-1.2c-1.9-0.8-3.5-1.9-4.9-3.3c-1.4-1.4-2.5-3-3.3-4.8s-1.2-3.8-1.2-5.9
			c0-2.1,0.4-4.1,1.2-5.9s1.9-3.5,3.3-4.8c1.4-1.4,3-2.5,4.9-3.3c1.9-0.8,3.9-1.2,6-1.2c2,0,4,0.4,5.8,1.1c1.9,0.8,3.5,1.8,5,3.1
			c1.4,1.3,2.6,2.9,3.4,4.8C78.7,96,79.1,98.1,79.1,100.3z M71.6,97.5c-0.6-1.8-1.6-3.3-3-4.4c-1.4-1.1-3.1-1.7-4.9-1.7
			c-1.8,0-3.4,0.6-4.9,1.7c-1.4,1.1-2.4,2.6-3,4.4H71.6z"/>
		<path class="st1" d="M95.8,114.7c-0.6,0.3-1.2,0.5-1.9,0.7c-0.7,0.2-1.5,0.3-2.2,0.3c-1.1,0-2.1-0.1-3.1-0.4
			c-1-0.3-1.8-0.7-2.6-1.4c-0.7-0.6-1.3-1.5-1.8-2.5c-0.4-1-0.7-2.2-0.7-3.7V73.3H91v33.1c0,1.2,0.2,2,0.7,2.5
			c0.5,0.5,1.1,0.7,1.7,0.7c0.8,0,1.6-0.3,2.4-0.8V114.7z"/>
		<path class="st1" d="M124.4,85.9l-10.8,29h-7.1l-10.9-29h7.9l6.6,19.4l6.6-19.4H124.4z"/>
		<path class="st1" d="M135.2,80.8h-7.5v-7.5h7.5V80.8z M135.1,114.8h-7.3v-29h7.3V114.8z"/>
		<path class="st1" d="M157.8,79.9c-0.7-0.3-1.3-0.4-1.9-0.5c-0.5-0.1-1.1-0.1-1.8-0.1c-1.4,0-2.4,0.3-3,1c-0.6,0.6-0.9,1.8-0.9,3.4
			v2.3h4.6v6.3h-4.6v22.6h-7.2V92.2h-3.5v-6.3h3.5v-2.2c0-3.6,0.7-6.4,2-8.3s3.7-2.8,7.2-2.8c1.9,0,3.8,0.2,5.5,0.7V79.9z"/>
		<path class="st1" d="M186.3,85.8l-13,34.4c-1,2.6-2.2,4.4-3.8,5.6c-1.6,1.1-3.4,1.7-5.6,1.7c-0.3,0-0.7,0-1.1-0.1
			c-0.4-0.1-0.8-0.1-1.1-0.2l-2.4-6.7c0.6,0.3,1.2,0.5,1.8,0.6c0.6,0.2,1.2,0.2,1.7,0.2c1.1,0,2.2-0.3,3.1-0.8
			c0.9-0.5,1.7-1.5,2.2-2.9l1-2.9l-11.2-28.9h7.9l6.6,18.6l6.3-18.6H186.3z"/>
	</g>
</g>
</svg>
